{"title":"Bloodline S01 2160p Netflix WEBRip DD5.1 x264-TrollUHD","uid":15267492,"size":195299658870,"categoryP":"video","categoryS":"hd___tv_shows","magnet":"?xt=urn:btih:adf122f60d8700494032deadaa62c3227efa09c3&amp;dn=Bloodline+S01+2160p+Netflix+WEBRip+DD5.1+x264-TrollUHD&amp;tr=udp%3A%2F%2Ftracker.leechers-paradise.org%3A6969&amp;tr=udp%3A%2F%2Fzer0day.ch%3A1337&amp;tr=udp%3A%2F%2Fopen.demonii.com%3A1337&amp;tr=udp%3A%2F%2Ftracker.coppersurfer.tk%3A6969&amp;tr=udp%3A%2F%2Fexodus.desync.com%3A6969","seeders":2,"leechers":5,"uploader":"BreexeOX","files":13,"time":1468230868,"description":"General\r\nFormat : Matroska\r\nFormat version : Version 4 / Version 2\r\nFile size : 13.5 GiB\r\nDuration : 59mn 9s\r\nOverall bit rate : 32.7 Mbps\r\nEncoded date : UTC 2015-12-16 12:48:17\r\n64bit\r\n\r\nVideo\r\nID : 1\r\nFormat : AVC\r\nFormat/Info : Advanced Video Codec\r\nFormat profile :   \r\nFormat settings, CABAC : Yes\r\nFormat settings, ReFrames : 5 frames\r\nCodec ID : V_MPEG4/ISO/AVC\r\nDuration : 59mn 9s\r\nBit rate : 32.1 Mbps\r\nWidth : 3 840 pixels\r\nHeight : 2 160 pixels\r\nDisplay aspect ratio : 16:9\r\nFrame rate mode : Constant\r\nFrame rate : 23.976 (24000/1001) fps\r\nColor space : YUV\r\nChroma subsampling : 4:2:0\r\nBit depth : 8 bits\r\nScan type : Progressive\r\nBits/(Pixel*Frame) : 0.161\r\nStream size : 13.3 GiB (98%)\r\nWriting library : x264 core 148 r2638 7599210\r\nEncoding settings : cabac=1 / ref=5 / deblock=1:-2:-2 / \r\nDefault : Yes\r\nForced : No\r\n\r\nAudio\r\nID : 2\r\nFormat : AC-3\r\nFormat/Info : Audio Coding 3\r\nMode extension : CM (complete main)\r\nFormat settings, Endianness : Big\r\nCodec ID : A_AC3\r\nDuration : 59mn 7s\r\nBit rate mode : Constant\r\nBit rate : 640 Kbps\r\nChannel(s) : 6 channels\r\nChannel positions : Front: L C R, Side: L R, LFE\r\nSampling rate : 48.0 KHz\r\nFrame rate : 31.250 fps (1536 spf)\r\nCompression mode : Lossy\r\nStream size : 271 MiB (2%)\r\nLanguage : English\r\nDefault : Yes\r\nForced : No\r\n\r\nText #1\r\nID : 3\r\nFormat : UTF-8\r\nCodec ID : S_TEXT/UTF8\r\nCodec ID/Info : UTF-8 Plain Text\r\nDuration : 58mn 50s\r\nBit rate : 62 bps\r\nCount of elements : 800\r\nStream size : 27.1 KiB (0%)\r\nTitle : CC\r\nLanguage : English\r\nDefault : No\r\nForced : No\r\n\r\nText #2\r\nID : 4\r\nFormat : UTF-8\r\nCodec ID : S_TEXT/UTF8\r\nCodec ID/Info : UTF-8 Plain Text\r\nDuration : 57mn 54s\r\nBit rate : 53 bps\r\nCount of elements : 643\r\nStream size : 22.6 KiB (0%)\r\nLanguage : Spanish\r\nDefault : No\r\nForced : No","torrent":{"xt":"urn:btih:adf122f60d8700494032deadaa62c3227efa09c3","amp;dn":"Bloodline+S01+2160p+Netflix+WEBRip+DD5.1+x264-TrollUHD","amp;tr":["udp%3A%2F%2Ftracker.leechers-paradise.org%3A6969","udp%3A%2F%2Fzer0day.ch%3A1337","udp%3A%2F%2Fopen.demonii.com%3A1337","udp%3A%2F%2Ftracker.coppersurfer.tk%3A6969","udp%3A%2F%2Fexodus.desync.com%3A6969"],"infoHash":"adf122f60d8700494032deadaa62c3227efa09c3","infoHashBuffer":{"type":"Buffer","data":[173,241,34,246,13,135,0,73,64,50,222,173,170,98,195,34,126,250,9,195]},"announce":[],"urlList":[]}}